<svg width="145" height="158" viewBox="0 0 145 158" fill="none" xmlns="http://www.w3.org/2000/svg">
<g clip-path="url(#clip0_2001_177275)">
<path d="M32.7989 0C33.9359 0.264 35.0809 0.494018 36.2079 0.800018C41.9079 2.33202 43.5809 6.02902 40.9819 11.3C40.8249 11.619 40.6539 11.93 40.4359 12.348C40.7288 12.5436 41.0319 12.7235 41.3439 12.887C50.5009 17.087 58.1749 23.263 65.0199 30.557C65.6519 31.231 66.2469 32 65.4939 32.84C64.5369 33.909 63.6999 33.273 62.9249 32.435C58.4989 27.5576 53.4525 23.2815 47.9149 19.716C45.0209 17.889 41.9639 16.316 39.1149 14.716C36.9769 16.907 35.1669 19.025 33.0919 20.841C26.6919 26.441 19.3239 29.708 10.6919 29.568C7.90006 29.6213 5.15476 28.8482 2.80091 27.346C-0.129094 25.367 -0.899113 22.215 1.15589 19.332C2.32269 17.7097 3.75719 16.2978 5.39789 15.157C14.9679 8.52201 25.3429 7.345 36.3399 10.923C36.7679 11.062 37.1949 11.204 37.8019 11.403C38.3394 10.3499 38.8071 9.26252 39.2019 8.14801C39.7739 6.15501 39.0749 4.84801 37.0079 4.01501C33.3309 2.54201 29.4629 2.63901 25.6079 2.88901C23.4079 3.03101 21.2259 3.395 19.0339 3.647C18.0969 3.755 17.0499 3.893 16.8069 2.647C16.5499 1.331 17.4719 1.015 18.5589 0.869995C20.4309 0.619995 22.2939 0.303 24.1589 0.0130005L32.7989 0ZM35.9539 13.78C35.5449 13.611 35.2819 13.48 35.0039 13.392C25.2629 10.264 16.0699 11.402 7.5289 17.072C6.08041 18.0366 4.78782 19.2169 3.6959 20.572C2.1959 22.444 2.62089 24.155 4.77289 25.245C6.05172 25.8859 7.42526 26.317 8.84091 26.522C14.7809 27.375 20.2119 25.693 25.3589 22.888C29.4788 20.6122 33.0855 17.5117 35.9539 13.78Z" fill="#C0C0C0"/>
<path d="M112.08 113.57C110.363 113.763 108.837 113.884 107.334 114.141C107.116 114.204 106.915 114.315 106.745 114.466C106.575 114.617 106.441 114.803 106.352 115.012C104.363 120.919 101.089 126.313 96.765 130.803C96.6155 131.064 96.5266 131.356 96.5048 131.656C96.483 131.956 96.5289 132.258 96.639 132.538C99.3554 139.291 101.369 146.306 102.649 153.472C102.791 154.28 102.939 155.087 103.057 155.898C103.195 156.854 103.038 157.721 101.902 157.874C100.893 158.01 100.516 157.368 100.291 156.431C98.912 150.66 97.529 144.889 96.029 139.149C95.529 137.238 94.682 135.417 93.929 133.382C93.362 133.776 92.957 134.049 92.561 134.335C86.518 138.705 80.092 142.217 72.606 143.445C68.6972 144.101 64.6967 143.966 60.8407 143.05C56.9846 142.134 53.3512 140.455 50.155 138.111C43.099 133.211 37.892 126.621 33.449 119.392C25.768 106.892 20.464 93.3429 16.543 79.2919C13.712 69.1429 11.569 58.8019 9.14299 48.5399C8.82099 47.1739 9.35 46.4839 10.751 46.3129C28.304 44.1729 45.684 44.8019 62.761 49.7479C68.9921 51.5376 74.9644 54.1289 80.528 57.4569C80.779 56.5939 81.011 55.8449 81.216 55.0889C83.7599 45.5668 87.7169 36.4798 92.955 28.1309C93.2049 27.6326 93.6107 27.2295 94.1107 26.9829C94.6107 26.7363 95.1775 26.6598 95.725 26.7649C107.905 27.9869 118.157 33.3349 127.046 41.4739C134.47 48.2739 139.939 56.3739 142.232 66.3089C145.141 78.9089 141.621 89.8359 133.132 99.3139C128.258 104.756 122.742 109.378 115.913 112.262C115.642 112.458 115.413 112.706 115.238 112.991C115.064 113.277 114.948 113.594 114.898 113.925C113.326 121.243 110.948 128.365 107.807 135.159C107.679 135.438 107.56 135.722 107.429 136C107.029 136.833 106.451 137.387 105.486 136.947C104.55 136.521 104.486 135.756 104.886 134.88C105.418 133.715 105.945 132.547 106.442 131.366C108.888 125.629 110.776 119.669 112.08 113.57ZM71.08 98.0869C70.68 97.6119 70.492 97.3799 70.292 97.1609C64.5354 90.7165 58.1672 84.8456 51.277 79.6309C45.067 75.0119 38.534 70.8309 32.117 66.4909C31.217 65.8849 30.417 65.2909 31.106 64.1769C31.755 63.1269 32.687 63.5289 33.528 64.0569C33.701 64.1659 33.885 64.2569 34.062 64.3569C44.1119 70.2838 53.5231 77.2323 62.146 85.0919C62.49 85.4019 62.839 85.7059 63.504 86.2919C63.334 84.8919 63.279 83.9689 63.104 83.0699C62.425 79.6049 61.733 76.1429 60.989 72.6919C60.783 71.7369 60.945 70.8919 61.889 70.7689C62.42 70.7019 63.081 71.3689 63.615 71.7949C63.815 71.9539 63.858 72.3519 63.915 72.6519C64.749 77.3899 65.625 82.1209 66.371 86.8729C66.5341 88.3759 67.1563 89.7921 68.153 90.9289C73.184 96.6189 78.063 102.443 82.964 108.247C83.84 109.284 84.559 110.453 85.631 111.953C85.947 108.953 86.242 106.415 86.454 103.868C86.422 103.417 86.2496 102.986 85.961 102.638C80.973 95.4549 78.882 87.3569 78.468 78.7509C78.2102 72.9485 78.6534 67.1362 79.788 61.4399C79.947 60.6239 79.809 60.2179 79.105 59.8519C77.149 58.8339 75.259 57.6849 73.269 56.7419C64.354 52.6614 54.8403 50.0422 45.093 48.9849C35.7998 47.9156 26.4261 47.7311 17.098 48.4339C15.437 48.5429 13.786 48.8069 11.998 49.0139C12.998 53.6649 13.876 58.0849 14.898 62.4709C18.657 78.5799 23.562 94.3039 30.975 109.15C35.381 117.973 40.567 126.271 48.033 132.899C54.094 138.279 61.039 141.429 69.325 140.948C74.5656 140.586 79.6487 139.002 84.167 136.323C87.127 134.631 89.941 132.682 92.843 130.833C91.889 128.867 91.153 127.233 90.289 125.663C90.1412 125.471 89.949 125.317 89.7289 125.215C89.5087 125.114 89.2672 125.067 89.025 125.079C80.0017 126.798 70.6795 126.002 62.078 122.779C61.103 122.43 60.119 122.061 60.537 120.772C60.967 119.449 62.003 119.772 62.955 120.124C69.3299 122.477 76.1266 123.469 82.908 123.037C84.715 122.93 86.508 122.598 88.349 122.365C88.326 122.141 88.2791 121.919 88.209 121.705C84.2266 114.572 79.5363 107.859 74.209 101.666C73.7311 101.236 73.1226 100.978 72.481 100.935C69.327 100.549 66.12 100.463 63.012 99.8569C58.496 98.9759 54.047 97.7449 49.574 96.6479C48.674 96.4279 48.018 95.8859 48.318 94.8899C48.3645 94.6865 48.4569 94.4965 48.5883 94.3344C48.7196 94.1722 48.8864 94.0424 49.0757 93.9547C49.265 93.8671 49.4719 93.8239 49.6805 93.8286C49.8891 93.8334 50.0938 93.8858 50.279 93.9819C50.958 94.2079 51.667 94.3409 52.355 94.5409C58.4558 96.3842 64.7355 97.573 71.088 98.0869H71.08ZM112.887 81.2049C111.612 69.91 108.126 58.9765 102.628 49.0279C101.45 46.8689 100.016 44.8499 98.857 42.6819C98.595 42.1909 98.985 41.3509 99.075 40.6709C99.755 40.7556 100.423 40.9155 101.068 41.1479C101.429 41.3199 101.655 41.8479 101.868 42.2549C104.548 47.4379 107.34 52.5689 109.834 57.8409C111.209 60.7459 112.077 63.8909 113.242 67.1169C114.914 63.3136 116.066 59.3021 116.666 55.1909C116.813 54.1639 117.09 53.2829 118.293 53.4109C119.554 53.5449 119.529 54.5699 119.444 55.5359C119.421 55.7909 119.406 56.0489 119.362 56.3009C118.491 61.1467 117.008 65.8624 114.95 70.3349C114.606 71.2148 114.502 72.1707 114.65 73.1039C115.276 77.7729 116.116 82.4149 116.657 87.0929C117.007 90.1249 116.973 93.2009 117.11 96.2569L117.403 96.5209C117.614 96.1859 117.816 95.8449 118.038 95.5209C120.248 92.2549 122.702 89.1209 124.601 85.6859C126.064 82.6993 127.323 79.6169 128.369 76.4599C128.703 75.5929 129.125 74.9359 130.129 75.1839C131.241 75.4589 131.314 76.3179 131.057 77.2649C131.003 77.4649 130.925 77.6529 130.865 77.8489C128.382 86.3132 123.777 94.0023 117.486 100.186C117.108 100.513 116.84 100.949 116.719 101.435C116.401 103.962 116.175 106.5 115.914 109.073C116.171 108.995 116.423 108.904 116.67 108.8C117.224 108.532 117.77 108.256 118.314 107.96C123.235 105.153 127.625 101.505 131.287 97.1829C138.999 88.4209 142.153 78.3719 139.487 66.8149C137.725 59.5422 134.104 52.8516 128.98 47.3979C120.327 37.8499 109.79 31.6239 96.917 29.6589C96.5076 29.5245 96.0635 29.5413 95.6655 29.7065C95.2675 29.8716 94.942 30.1741 94.748 30.5589C85.553 46.2589 80.063 62.9149 81.502 81.3709C81.9638 88.2637 84.2242 94.9151 88.058 100.662C93.748 109.132 102.075 112.725 111.179 110.762C111.675 110.719 112.137 110.495 112.478 110.133C112.818 109.77 113.013 109.294 113.024 108.797C114.115 101.685 114.43 94.4765 113.965 87.2969C113.962 86.6448 113.806 86.0025 113.511 85.4209C113.216 84.8394 112.789 84.3347 112.265 83.9469C105.74 78.9211 100.034 72.9129 95.352 66.1369C94.757 65.2539 94.478 64.4169 95.519 63.7639C96.486 63.1579 97.091 63.7989 97.676 64.5639C99.515 66.9639 101.255 69.4749 103.313 71.6809C106.38 74.9709 109.689 78.0409 112.895 81.2049H112.887ZM103.711 113.974C97.918 113.262 93.311 110.574 89.186 106.566C88.699 109.594 88.238 112.397 87.813 115.205C87.78 115.419 87.974 115.681 88.096 115.905C90.403 120.064 92.716 124.219 95.07 128.452C99.0075 124.34 101.964 119.39 103.719 113.974H103.711Z" fill="#C0C0C0"/>
<path d="M46.9359 150.54C38.7739 150.44 31.9839 147.021 25.9939 141.763C19.2429 135.837 14.3989 128.481 10.6179 120.439C8.26892 115.445 6.35589 110.246 4.27389 105.128C3.85389 104.096 3.21892 102.828 4.81192 102.293C6.31192 101.793 6.53891 103.168 6.87991 104.153C9.20753 111.157 12.196 117.924 15.8049 124.363C20.0489 131.733 25.1179 138.394 32.3669 143.102C37.0649 146.304 42.655 147.938 48.3379 147.772C49.4149 147.732 50.8649 147.429 50.9479 149.1C51.0359 150.873 49.5369 150.46 48.4769 150.533C47.9649 150.57 47.4499 150.54 46.9359 150.54Z" fill="#C0C0C0"/>
<path d="M104.187 10.7471C102.955 10.7471 101.722 10.7331 100.487 10.7471C99.469 10.7621 98.558 10.5711 98.521 9.34108C98.486 8.16808 99.377 7.98508 100.321 7.92308C117.932 6.76108 134.226 14.4081 141.97 33.3941C142.897 35.779 143.672 38.2206 144.288 40.7041C144.369 41.0811 144.368 41.471 144.285 41.8476C144.203 42.2242 144.041 42.5789 143.811 42.8881C143.082 43.6881 141.987 43.0341 141.679 41.6811C140.608 36.8145 138.719 32.1651 136.091 27.9311C129.96 18.1621 121.221 12.4211 109.711 11.0441C107.878 10.8251 106.032 10.7161 104.193 10.5561L104.187 10.7471Z" fill="#C0C0C0"/>
</g>
<defs>
<clipPath id="clip0_2001_177275">
<rect width="144.35" height="157.891" fill="white"/>
</clipPath>
</defs>
</svg>
