<svg width="57" height="47" viewBox="0 0 57 47" fill="none" xmlns="http://www.w3.org/2000/svg">
<path d="M38.2331 33.5064L28.6671 23.9404L19.1011 33.5064" stroke="#F29C46" stroke-width="3" stroke-linecap="round" stroke-linejoin="round"/>
<path d="M28.667 23.9404V45.4644" stroke="#F29C46" stroke-width="3" stroke-linecap="round" stroke-linejoin="round"/>
<path d="M48.7319 39.2185C51.0644 37.9468 52.9071 35.9345 53.969 33.4992C55.0309 31.064 55.2517 28.3445 54.5963 25.7698C53.941 23.1952 52.447 20.9121 50.35 19.2809C48.2531 17.6497 45.6726 16.7633 43.0159 16.7615H40.0029C39.2779 13.9625 37.9279 11.3642 36.0544 9.16192C34.1809 6.95965 31.8326 5.21065 29.186 4.04638C26.5394 2.88211 23.6633 2.33285 20.7739 2.43987C17.8845 2.54689 15.057 3.30742 12.5038 4.66429C9.95054 6.02117 7.73807 7.93909 6.03263 10.2739C4.32718 12.6088 3.17311 15.2998 2.65717 18.1448C2.14122 20.9897 2.27681 23.9146 3.05374 26.6997C3.83067 29.4847 5.22874 32.0574 7.14288 34.2245" stroke="#F29C46" stroke-width="3" stroke-linecap="round" stroke-linejoin="round"/>
<path d="M38.2331 33.5064L28.6671 23.9404L19.1011 33.5064" stroke="#F29C46" stroke-width="3" stroke-linecap="round" stroke-linejoin="round"/>
</svg>
