<svg width="24" height="24" viewBox="0 0 24 24" fill="none" xmlns="http://www.w3.org/2000/svg">
<path fill-rule="evenodd" clip-rule="evenodd" d="M11.9998 20.1601C16.5065 20.1601 20.1598 16.5066 20.1598 12.0001C20.1598 7.49353 16.5065 3.84009 11.9998 3.84009C7.49319 3.84009 3.83984 7.49353 3.83984 12.0001C3.83984 16.5066 7.49319 20.1601 11.9998 20.1601ZM15.6149 8.38509C15.9148 8.68485 15.9148 9.17118 15.6149 9.47118L13.086 12.0001L15.6149 14.529C15.9148 14.829 15.9148 15.3153 15.6149 15.6151C15.315 15.9151 14.8287 15.9151 14.5288 15.6151L11.9998 13.0862L9.47091 15.6151C9.171 15.9151 8.68473 15.9151 8.38479 15.6151C8.08487 15.3153 8.08487 14.829 8.38479 14.529L10.9137 12.0001L8.38479 9.47118C8.08487 9.17118 8.08487 8.68485 8.38479 8.38509C8.6847 8.08509 9.17097 8.08509 9.47091 8.38509L11.9998 10.914L14.5288 8.38509C14.8287 8.08509 15.315 8.08509 15.6149 8.38509Z" fill="#8E8E93"/>
</svg>
