<svg width="24" height="24" viewBox="0 0 24 24" fill="none" xmlns="http://www.w3.org/2000/svg">
<path d="M1.69238 18.0137V22.3077H5.98638L18.6514 9.64268L14.3574 5.34868L1.69238 18.0137ZM21.9724 6.32168C22.0787 6.21577 22.163 6.08992 22.2205 5.95135C22.2781 5.81279 22.3077 5.66422 22.3077 5.51418C22.3077 5.36414 22.2781 5.21558 22.2205 5.07701C22.163 4.93844 22.0787 4.81259 21.9724 4.70668L19.2924 2.02768C19.1865 1.9214 19.0606 1.83708 18.9221 1.77954C18.7835 1.722 18.6349 1.69238 18.4849 1.69238C18.3348 1.69238 18.1863 1.722 18.0477 1.77954C17.9091 1.83708 17.7833 1.9214 17.6774 2.02768L15.5774 4.12768L19.8714 8.42168L21.9714 6.32168H21.9724Z" fill="#F29C46"/>
</svg>
