<svg width="71" height="71" viewBox="0 0 71 71" fill="none" xmlns="http://www.w3.org/2000/svg">
<g clip-path="url(#clip0_2001_177331)">
<path d="M65.3563 41.711C65.2368 41.9048 65.0658 42.0613 64.8625 42.163C64.6592 42.2647 64.4316 42.3075 64.2054 42.2867C45.4597 42.2764 26.7142 42.2733 7.96897 42.2772C7.81711 42.2904 7.66419 42.2837 7.51404 42.2574C7.30338 42.2247 7.11358 42.1113 6.9846 41.9411C6.85561 41.7709 6.79751 41.5571 6.82252 41.3448C6.82397 41.1412 6.90311 40.946 7.04368 40.7991C7.18425 40.6523 7.37557 40.565 7.5783 40.5553C7.63389 40.5414 7.69148 40.5374 7.74844 40.5436C8.84377 40.8028 9.40896 40.1502 10.0121 39.3673C13.5172 34.7934 17.0609 30.2539 20.5813 25.6939C20.9101 25.1848 21.3922 24.7941 21.9575 24.5786C22.5229 24.3631 23.142 24.3341 23.7249 24.4957C23.8432 24.4908 23.9589 24.4601 24.0641 24.4057C24.1693 24.3513 24.2614 24.2745 24.3339 24.1808C26.2201 21.8788 28.088 19.5622 29.9603 17.2493C31.3165 15.574 32.673 13.8987 34.0298 12.2235C34.2619 11.8932 34.5653 11.6196 34.9173 11.423C35.2693 11.2264 35.661 11.1119 36.0632 11.088C36.4654 11.064 36.8678 11.1313 37.2405 11.2848C37.6133 11.4383 37.9467 11.674 38.2161 11.9744C40.493 14.2303 42.7545 16.5007 45.0006 18.7859C45.33 19.1206 45.5848 19.1872 45.9726 18.9323C46.2669 18.7574 46.5723 18.6018 46.8868 18.4665C47.202 18.2836 47.551 18.1669 47.9125 18.1235C48.2741 18.0801 48.6407 18.1109 48.99 18.2141C49.3393 18.3173 49.664 18.4907 49.9445 18.7237C50.2249 18.9567 50.4551 19.2445 50.6211 19.5695C53.0338 23.5909 55.4416 27.6155 57.8445 31.6433C59.5174 34.4411 61.1976 37.2353 62.8552 40.0426C62.9292 40.2153 63.0582 40.3585 63.2221 40.4495C63.3861 40.5406 63.5755 40.5745 63.7607 40.5457C64.0453 40.4718 64.3446 40.4771 64.6264 40.5611C64.9082 40.6452 65.1618 40.8047 65.3599 41.0225L65.3563 41.711ZM61.1071 40.5392C60.953 40.2645 60.8501 40.0697 60.7376 39.88C58.2237 35.675 55.7091 31.4705 53.1937 27.2664C51.8525 25.0252 50.5104 22.7848 49.1673 20.5451C48.7912 19.9196 48.3553 19.7138 47.7996 19.9738C46.77 20.455 45.5885 20.8161 45.5687 22.2882C45.5652 22.3264 45.5548 22.3636 45.5381 22.3981C45.4708 22.6096 45.3272 22.7883 45.1353 22.8992C44.9435 23.01 44.7174 23.045 44.5012 22.9972C44.2852 22.9449 44.0981 22.81 43.9799 22.6213C43.8616 22.4327 43.8215 22.2051 43.8681 21.9872C43.9108 21.6662 43.9947 21.3521 44.1178 21.0527C44.1972 20.892 44.2164 20.7082 44.1721 20.5345C44.1277 20.3609 44.0227 20.2089 43.8761 20.1064C41.6686 17.915 39.4787 15.7068 37.2822 13.5044C36.3855 12.605 35.9488 12.6255 35.1646 13.5945L28.2837 22.0905C27.4235 23.1532 26.5655 24.2145 25.6659 25.3307C26.5421 25.7115 27.3614 26.0514 28.1661 26.4256C28.2931 26.5028 28.4426 26.5339 28.5897 26.5139C28.7368 26.494 28.8726 26.424 28.9745 26.3158C30.0698 25.3695 31.19 24.4466 32.305 23.5209C32.5605 23.2604 32.8658 23.0544 33.2026 22.915C33.5393 22.7757 33.9007 22.706 34.265 22.71C34.6292 22.714 34.989 22.7917 35.3226 22.9385C35.6562 23.0853 35.9569 23.298 36.2066 23.5641C37.4854 24.6803 38.7641 25.797 40.0424 26.9141C40.65 27.4437 41.2612 27.9673 41.9308 28.5452C42.2273 27.5198 42.4894 26.5904 42.7691 25.6639C42.9509 25.0626 43.3854 24.7777 43.8644 24.9154C43.9886 24.9492 44.1041 25.0096 44.2027 25.0924C44.3014 25.1752 44.3811 25.2786 44.4361 25.3952C44.4911 25.5119 44.5203 25.6392 44.5216 25.7683C44.5228 25.8973 44.4962 26.0252 44.4435 26.1429C44.1346 27.2415 43.7994 28.335 43.5124 29.4388C43.4914 29.5465 43.4948 29.6576 43.5224 29.7638C43.5499 29.87 43.6009 29.9687 43.6716 30.0525C47.57 33.4758 51.4784 36.8876 55.3968 40.2879C55.5118 40.4111 55.6625 40.4948 55.8276 40.5274C57.5487 40.5392 59.2757 40.5348 61.1064 40.5348L61.1071 40.5392ZM52.8235 40.5157L52.9067 40.3824C52.7673 40.2938 52.6325 40.198 52.5029 40.0953C46.7249 35.0598 40.9477 30.0232 35.1711 24.9857C34.3679 24.2833 34.086 24.2943 33.255 24.9945C32.2641 25.8302 31.2834 26.679 30.2677 27.4847C30.1909 27.5246 30.1235 27.5806 30.0701 27.6489C30.0166 27.7172 29.9785 27.7962 29.9581 27.8805C29.9378 27.9649 29.9357 28.0527 29.9521 28.1379C29.9685 28.2231 30.0029 28.3038 30.053 28.3746C31.8771 32.2514 33.6863 36.1354 35.4807 40.0265C35.5327 40.1943 35.6413 40.3388 35.7879 40.4351C35.9344 40.5315 36.1098 40.5737 36.284 40.5545C41.6358 40.5384 46.9868 40.5443 52.3386 40.5428C52.4993 40.5392 52.6606 40.5194 52.8228 40.5106L52.8235 40.5157ZM18.3388 40.5025H33.7326C33.7184 40.4145 33.697 40.3277 33.6683 40.2433C31.8608 36.3571 30.0482 32.4734 28.2304 28.5921C28.1111 28.383 27.9266 28.2191 27.7054 28.1255C26.3179 27.5096 24.9145 26.9163 23.5146 26.3231C22.7756 26.0096 22.4923 26.0909 21.9958 26.7318C18.5686 31.1482 15.1422 35.5651 11.7165 39.9825C11.5982 40.1356 11.4974 40.3004 11.3294 40.5414C12.9206 40.5414 14.3847 40.5304 15.848 40.5494C15.996 40.5653 16.1451 40.533 16.2734 40.4575C16.4017 40.3819 16.5024 40.267 16.5607 40.1297C17.4136 38.5543 18.2914 36.9928 19.1603 35.4262C19.6503 34.5429 20.1286 33.653 20.6324 32.7785C20.6827 32.6697 20.7549 32.5725 20.8444 32.493C20.9339 32.4135 21.0388 32.3533 21.1526 32.3164C21.2663 32.2795 21.3865 32.2666 21.5055 32.2785C21.6245 32.2904 21.7397 32.3268 21.844 32.3855C21.9483 32.4441 22.0394 32.5238 22.1115 32.6195C22.1836 32.7151 22.2352 32.8247 22.2631 32.9413C22.291 33.0579 22.2946 33.1791 22.2736 33.2971C22.2526 33.4152 22.2075 33.5277 22.1411 33.6274C22.0235 33.8669 21.8884 34.0976 21.7592 34.3312C20.6324 36.3586 19.5057 38.391 18.3388 40.4981V40.5025Z" fill="#262626"/>
<path d="M12.6286 54.7867H11.6103V46.0686H12.6286V54.7867Z" fill="#262626"/>
<path d="M17.6656 54.7259C17.4313 54.8556 17.1221 54.9205 16.7382 54.9205C15.6512 54.9205 15.1077 54.3125 15.1077 53.0966V49.4124H14.0409V48.5612H15.1077V47.0413L16.1018 46.7191V48.5612H17.6656V49.4124H16.1018V52.9203C16.1018 53.3377 16.1725 53.6356 16.3139 53.814C16.4554 53.9923 16.6897 54.0815 17.0171 54.0815C17.2676 54.0815 17.4838 54.0126 17.6656 53.8748V54.7259Z" fill="#262626"/>
<path d="M23.4361 54.7867H22.442V53.814H22.4178C21.9854 54.5597 21.3489 54.9326 20.5084 54.9326C19.8902 54.9326 19.4052 54.7685 19.0537 54.4402C18.7062 54.1119 18.5324 53.6762 18.5324 53.1331C18.5324 51.9698 19.2153 51.293 20.5812 51.1025L22.442 50.8411C22.442 49.7832 22.0157 49.2543 21.1631 49.2543C20.4155 49.2543 19.7406 49.5096 19.1385 50.0203V48.9989C19.7487 48.6099 20.4518 48.4153 21.2479 48.4153C22.7067 48.4153 23.4361 49.1894 23.4361 50.7377V54.7867ZM22.442 51.6375L20.9448 51.8442C20.4842 51.909 20.1367 52.0246 19.9023 52.1907C19.6679 52.3528 19.5507 52.6426 19.5507 53.0601C19.5507 53.3641 19.6578 53.6133 19.872 53.8079C20.0902 53.9984 20.3791 54.0936 20.7388 54.0936C21.2317 54.0936 21.6379 53.9214 21.9571 53.5769C22.2804 53.2283 22.442 52.7886 22.442 52.2576V51.6375Z" fill="#262626"/>
<path d="M29.5399 54.501C29.0631 54.7887 28.4973 54.9326 27.8427 54.9326C26.9578 54.9326 26.2425 54.6448 25.697 54.0693C25.1555 53.4897 24.8848 52.7399 24.8848 51.8199C24.8848 50.7944 25.1777 49.9717 25.7637 49.3516C26.3496 48.7274 27.1315 48.4153 28.1094 48.4153C28.6549 48.4153 29.1358 48.5166 29.552 48.7193V49.7407C29.0914 49.4164 28.5984 49.2543 28.073 49.2543C27.4386 49.2543 26.9173 49.4833 26.5092 49.9413C26.1051 50.3952 25.9031 50.993 25.9031 51.7348C25.9031 52.4643 26.093 53.0398 26.4728 53.4614C26.8567 53.8829 27.3699 54.0936 28.0124 54.0936C28.5539 54.0936 29.0631 53.9133 29.5399 53.5526V54.501Z" fill="#262626"/>
<path d="M33.6374 54.9326C32.7201 54.9326 31.9867 54.6428 31.4371 54.0632C30.8916 53.4796 30.6188 52.7075 30.6188 51.7469C30.6188 50.7012 30.9037 49.8845 31.4735 49.2968C32.0433 48.7092 32.8131 48.4153 33.7829 48.4153C34.7083 48.4153 35.4296 48.701 35.9468 49.2725C36.4681 49.844 36.7287 50.6364 36.7287 51.6496C36.7287 52.6426 36.4479 53.4391 35.8862 54.0389C35.3285 54.6347 34.5789 54.9326 33.6374 54.9326ZM33.7101 49.2543C33.0717 49.2543 32.5666 49.4732 32.1948 49.9109C31.823 50.3446 31.6371 50.9444 31.6371 51.7104C31.6371 52.4481 31.8251 53.0297 32.2009 53.4553C32.5767 53.8808 33.0798 54.0936 33.7101 54.0936C34.3527 54.0936 34.8456 53.8849 35.1891 53.4674C35.5366 53.05 35.7104 52.4562 35.7104 51.6861C35.7104 50.9079 35.5366 50.3081 35.1891 49.8866C34.8456 49.465 34.3527 49.2543 33.7101 49.2543Z" fill="#262626"/>
<path d="M39.3109 54.7867H38.3168V45.5701H39.3109V54.7867Z" fill="#262626"/>
<path d="M43.9175 54.9326C43.0003 54.9326 42.2668 54.6428 41.7173 54.0632C41.1717 53.4796 40.899 52.7075 40.899 51.7469C40.899 50.7012 41.1839 49.8845 41.7536 49.2968C42.3234 48.7092 43.0932 48.4153 44.063 48.4153C44.9884 48.4153 45.7097 48.701 46.2269 49.2725C46.7482 49.844 47.0089 50.6364 47.0089 51.6496C47.0089 52.6426 46.728 53.4391 46.1663 54.0389C45.6087 54.6347 44.8591 54.9326 43.9175 54.9326ZM43.9903 49.2543C43.3518 49.2543 42.8467 49.4732 42.4749 49.9109C42.1032 50.3446 41.9173 50.9444 41.9173 51.7104C41.9173 52.4481 42.1052 53.0297 42.481 53.4553C42.8568 53.8808 43.3599 54.0936 43.9903 54.0936C44.6328 54.0936 45.1258 53.8849 45.4693 53.4674C45.8168 53.05 45.9905 52.4562 45.9905 51.6861C45.9905 50.9079 45.8168 50.3081 45.4693 49.8866C45.1258 49.465 44.6328 49.2543 43.9903 49.2543Z" fill="#262626"/>
<path d="M57.4102 54.7867H56.4161V51.2119C56.4161 50.5229 56.3091 50.0244 56.0949 49.7163C55.8848 49.4083 55.5292 49.2543 55.0281 49.2543C54.6038 49.2543 54.2421 49.4488 53.9431 49.8379C53.6481 50.227 53.5006 50.6931 53.5006 51.2362V54.7867H52.5065V51.0903C52.5065 49.8663 52.0358 49.2543 51.0942 49.2543C50.6578 49.2543 50.2982 49.4387 50.0153 49.8075C49.7324 50.1723 49.591 50.6485 49.591 51.2362V54.7867H48.5969V48.5612H49.591V49.5461H49.6153C50.0557 48.7922 50.6982 48.4153 51.5428 48.4153C51.9671 48.4153 52.3368 48.5349 52.652 48.774C52.9672 49.0091 53.1834 49.3191 53.3006 49.7042C53.7613 48.8449 54.4482 48.4153 55.3615 48.4153C56.7273 48.4153 57.4102 49.2604 57.4102 50.9505V54.7867Z" fill="#262626"/>
<path d="M59.7984 46.9805C59.6206 46.9805 59.4691 46.9197 59.3438 46.7981C59.2185 46.6766 59.1559 46.5225 59.1559 46.3361C59.1559 46.1497 59.2185 45.9956 59.3438 45.874C59.4691 45.7484 59.6206 45.6856 59.7984 45.6856C59.9802 45.6856 60.1338 45.7484 60.2591 45.874C60.3884 45.9956 60.453 46.1497 60.453 46.3361C60.453 46.5144 60.3884 46.6664 60.2591 46.7921C60.1338 46.9177 59.9802 46.9805 59.7984 46.9805ZM60.2833 54.7867H59.2892V48.5612H60.2833V54.7867Z" fill="#262626"/>
<path d="M24.7556 59.9136H24.3277L23.8143 59.051C23.7672 58.9709 23.7216 58.903 23.6773 58.8472C23.6331 58.79 23.5875 58.7435 23.5404 58.7077C23.4948 58.672 23.4449 58.6462 23.3907 58.6305C23.3379 58.6133 23.278 58.6047 23.211 58.6047H22.9157V59.9136H22.5563V56.8367H23.472C23.606 56.8367 23.7294 56.8538 23.8421 56.8882C23.9562 56.9211 24.0546 56.9718 24.1373 57.0405C24.2214 57.1092 24.287 57.195 24.3341 57.298C24.3812 57.3996 24.4047 57.519 24.4047 57.6563C24.4047 57.7636 24.3883 57.8623 24.3555 57.9524C24.3241 58.0411 24.2785 58.1205 24.2186 58.1906C24.1601 58.2607 24.0888 58.3208 24.0047 58.3709C23.9219 58.4195 23.8285 58.4574 23.7244 58.4846V58.4932C23.7757 58.516 23.82 58.5425 23.857 58.5726C23.8955 58.6012 23.9319 58.6355 23.9661 58.6755C24.0004 58.7156 24.0339 58.7614 24.0667 58.8129C24.1009 58.8629 24.1387 58.9216 24.1801 58.9888L24.7556 59.9136ZM22.9157 57.1628V58.2786H23.4035C23.4934 58.2786 23.5761 58.265 23.6517 58.2378C23.7287 58.2106 23.795 58.172 23.8506 58.1219C23.9062 58.0704 23.9497 58.0082 23.9811 57.9353C24.0125 57.8609 24.0282 57.7779 24.0282 57.6864C24.0282 57.5219 23.9747 57.3938 23.8677 57.3023C23.7622 57.2093 23.6089 57.1628 23.4078 57.1628H22.9157Z" fill="#262626"/>
<path d="M26.805 59.9136H25.1791V56.8367H26.7366V57.1628H25.5385V58.1863H26.6467V58.5103H25.5385V59.5875H26.805V59.9136Z" fill="#262626"/>
<path d="M27.2521 59.7892V59.3643C27.3006 59.4072 27.3584 59.4459 27.4254 59.4802C27.4939 59.5145 27.5652 59.5439 27.6394 59.5682C27.7149 59.5911 27.7905 59.6089 27.8661 59.6218C27.9417 59.6347 28.0116 59.6411 28.0758 59.6411C28.2968 59.6411 28.4616 59.6004 28.57 59.5188C28.6798 59.4358 28.7347 59.3171 28.7347 59.1626C28.7347 59.0797 28.7161 59.0074 28.6791 58.9459C28.6434 58.8844 28.5935 58.8286 28.5293 58.7785C28.4651 58.727 28.3888 58.6784 28.3004 58.6326C28.2134 58.5854 28.1193 58.5361 28.018 58.4846C27.911 58.4302 27.8112 58.3751 27.7185 58.3194C27.6258 58.2636 27.5452 58.2021 27.4768 58.1348C27.4083 58.0676 27.3541 57.9918 27.3142 57.9074C27.2757 57.8215 27.2564 57.7214 27.2564 57.607C27.2564 57.4668 27.2871 57.3452 27.3484 57.2422C27.4097 57.1378 27.4903 57.0519 27.5901 56.9847C27.69 56.9175 27.8034 56.8674 27.9303 56.8345C28.0587 56.8016 28.1892 56.7852 28.3218 56.7852C28.6242 56.7852 28.8445 56.8216 28.9828 56.8946V57.3001C28.8017 57.1742 28.5692 57.1113 28.2854 57.1113C28.207 57.1113 28.1285 57.1199 28.0501 57.1371C27.9717 57.1528 27.9018 57.1793 27.8404 57.2164C27.7791 57.2536 27.7292 57.3016 27.6907 57.3602C27.6522 57.4189 27.6329 57.4904 27.6329 57.5748C27.6329 57.6535 27.6472 57.7214 27.6757 57.7786C27.7057 57.8358 27.7492 57.8881 27.8062 57.9353C27.8633 57.9825 27.9324 58.0282 28.0137 58.0726C28.0965 58.1169 28.1913 58.1656 28.2983 58.2185C28.4081 58.2729 28.5122 58.3301 28.6106 58.3902C28.709 58.4502 28.7953 58.5168 28.8695 58.5897C28.9436 58.6627 29.0021 58.7435 29.0449 58.8322C29.0891 58.9209 29.1112 59.0224 29.1112 59.1369C29.1112 59.2885 29.0813 59.4173 29.0214 59.5231C28.9629 59.6275 28.883 59.7126 28.7817 59.7785C28.6819 59.8443 28.5664 59.8915 28.4352 59.9201C28.304 59.9501 28.1656 59.9651 28.0202 59.9651C27.9717 59.9651 27.9118 59.9608 27.8404 59.9523C27.7691 59.9451 27.6964 59.9337 27.6222 59.9179C27.5481 59.9036 27.4775 59.8857 27.4104 59.8643C27.3448 59.8414 27.2921 59.8164 27.2521 59.7892Z" fill="#262626"/>
<path d="M31.5372 57.1628H30.6515V59.9136H30.2921V57.1628H29.4086V56.8367H31.5372V57.1628Z" fill="#262626"/>
<path d="M34.0958 59.9136H33.6979L33.3727 59.051H32.072L31.7661 59.9136H31.366L32.5427 56.8367H32.9149L34.0958 59.9136ZM33.2551 58.727L32.7737 57.416C32.758 57.3731 32.7423 57.3044 32.7266 57.21H32.7181C32.7038 57.2973 32.6874 57.3659 32.6689 57.416L32.1918 58.727H33.2551Z" fill="#262626"/>
<path d="M36.7079 58.6691C36.7079 59.5331 36.3193 59.9651 35.542 59.9651C34.7975 59.9651 34.4253 59.5496 34.4253 58.7185V56.8367H34.7847V58.6949C34.7847 59.3257 35.0499 59.6411 35.5805 59.6411C36.0925 59.6411 36.3485 59.3364 36.3485 58.727V56.8367H36.7079V58.6691Z" fill="#262626"/>
<path d="M39.6751 59.9136H39.2473L38.7339 59.051C38.6868 58.9709 38.6411 58.903 38.5969 58.8472C38.5527 58.79 38.5071 58.7435 38.46 58.7077C38.4144 58.672 38.3645 58.6462 38.3103 58.6305C38.2575 58.6133 38.1976 58.6047 38.1306 58.6047H37.8353V59.9136H37.4759V56.8367H38.3916C38.5256 56.8367 38.649 56.8538 38.7617 56.8882C38.8758 56.9211 38.9742 56.9718 39.0569 57.0405C39.141 57.1092 39.2066 57.195 39.2537 57.298C39.3008 57.3996 39.3243 57.519 39.3243 57.6563C39.3243 57.7636 39.3079 57.8623 39.2751 57.9524C39.2437 58.0411 39.1981 58.1205 39.1382 58.1906C39.0797 58.2607 39.0084 58.3208 38.9242 58.3709C38.8415 58.4195 38.7481 58.4574 38.644 58.4846V58.4932C38.6953 58.516 38.7396 58.5425 38.7766 58.5726C38.8151 58.6012 38.8515 58.6355 38.8857 58.6755C38.92 58.7156 38.9535 58.7614 38.9863 58.8129C39.0205 58.8629 39.0583 58.9216 39.0997 58.9888L39.6751 59.9136ZM37.8353 57.1628V58.2786H38.3231C38.413 58.2786 38.4957 58.265 38.5713 58.2378C38.6483 58.2106 38.7146 58.172 38.7702 58.1219C38.8258 58.0704 38.8693 58.0082 38.9007 57.9353C38.9321 57.8609 38.9478 57.7779 38.9478 57.6864C38.9478 57.5219 38.8943 57.3938 38.7873 57.3023C38.6818 57.2093 38.5285 57.1628 38.3274 57.1628H37.8353Z" fill="#262626"/>
<path d="M42.4734 59.9136H42.0755L41.7503 59.051H40.4496L40.1437 59.9136H39.7436L40.9202 56.8367H41.2925L42.4734 59.9136ZM41.6326 58.727L41.1513 57.416C41.1356 57.3731 41.1199 57.3044 41.1042 57.21H41.0957C41.0814 57.2973 41.065 57.3659 41.0465 57.416L40.5694 58.727H41.6326Z" fill="#262626"/>
<path d="M45.4 59.9136H44.9593L43.3804 57.4611C43.3405 57.3996 43.3077 57.3352 43.282 57.2679H43.2692C43.2806 57.3337 43.2863 57.4747 43.2863 57.6907V59.9136H42.9269V56.8367H43.3933L44.9293 59.2506C44.9935 59.3507 45.0349 59.4194 45.0534 59.4566H45.062C45.0477 59.3679 45.0406 59.217 45.0406 59.0038V56.8367H45.4V59.9136Z" fill="#262626"/>
<path d="M48.0185 57.1628H47.1328V59.9136H46.7734V57.1628H45.8899V56.8367H48.0185V57.1628Z" fill="#262626"/>
<path d="M50.1279 59.9136H48.502V56.8367H50.0594V57.1628H48.8614V58.1863H49.9695V58.5103H48.8614V59.5875H50.1279V59.9136Z" fill="#262626"/>
</g>
<defs>
<clipPath id="clip0_2001_177331">
<rect width="58.5366" height="50.2961" fill="white" transform="translate(6.81982 11.0823)"/>
</clipPath>
</defs>
</svg>
