<svg width="24" height="24" viewBox="0 0 24 24" fill="none" xmlns="http://www.w3.org/2000/svg">
<path d="M21.7649 20.5469L16.1835 14.9079C17.4483 13.3125 18.054 11.2926 17.876 9.26374C17.698 7.23493 16.7498 5.35158 15.2265 4.00124C13.7032 2.6509 11.7207 1.93629 9.68701 2.00447C7.65329 2.07264 5.72303 2.91841 4.29344 4.36774C2.86385 5.81707 2.04368 7.7597 2.00169 9.79589C1.95971 11.8321 2.69911 13.8069 4.06775 15.314C5.43638 16.8212 7.33013 17.7459 9.35931 17.898C11.3885 18.0501 13.3987 17.418 14.9764 16.1317L20.5213 21.7335C20.6782 21.8981 20.8938 21.9939 21.1211 21.9997C21.3483 22.0056 21.5685 21.9211 21.7337 21.7648C21.8982 21.6069 21.9939 21.3904 21.9997 21.1623C22.0056 20.9342 21.9212 20.713 21.7649 20.5469ZM9.93238 16.1986C8.47934 16.1983 7.07136 15.6937 5.94833 14.7709C4.82529 13.8481 4.05668 12.5641 3.77344 11.1377C3.49021 9.71133 3.70987 8.23076 4.395 6.94828C5.08013 5.6658 6.18835 4.66074 7.53085 4.10435C8.87334 3.54796 10.3671 3.47466 11.7575 3.89693C13.1479 4.3192 14.3491 5.21092 15.1563 6.42016C15.9635 7.6294 16.3268 9.08136 16.1844 10.5287C16.0419 11.9759 15.4025 13.329 14.3751 14.3574C13.7929 14.9429 13.1005 15.4072 12.3379 15.7232C11.5753 16.0393 10.7577 16.2008 9.93238 16.1986Z" fill="#262626"/>
</svg>
