<svg width="24" height="24" viewBox="0 0 24 24" fill="none" xmlns="http://www.w3.org/2000/svg">
<path d="M4.57019 7.94858V21.4556C4.57151 21.8134 4.7143 22.1562 4.96741 22.4091C5.22051 22.662 5.56338 22.8045 5.92119 22.8056H18.0772C18.4352 22.8045 18.7782 22.6618 19.0313 22.4087C19.2845 22.1556 19.4271 21.8126 19.4282 21.4546V7.94858H4.57019ZM8.62119 20.1046H7.27219V10.6496H8.62119V20.1046ZM11.3212 20.1046H9.97319V10.6496H11.3212V20.1046ZM14.0212 20.1046H12.6752V10.6496H14.0212V20.1046ZM16.7212 20.1046H15.3762V10.6496H16.7272L16.7212 20.1046ZM19.7662 3.89558H15.3762V2.20758C15.3754 1.93916 15.2684 1.68196 15.0786 1.49216C14.8888 1.30235 14.6316 1.19537 14.3632 1.19458H9.63619C9.36742 1.19484 9.10971 1.30159 8.91948 1.49145C8.72924 1.68131 8.62198 1.93881 8.62119 2.20758V3.89558H4.23319C3.96494 3.89664 3.708 4.00373 3.51841 4.19351C3.32882 4.38328 3.22198 4.64033 3.22119 4.90858V6.59758H20.7792V4.90858C20.7784 4.64016 20.6714 4.38296 20.4816 4.19316C20.2918 4.00335 20.0346 3.89637 19.7662 3.89558ZM14.0262 3.89558H9.97319V2.56658H14.0212V3.89558H14.0262Z" fill="#262626"/>
</svg>
