<svg width="25" height="24" viewBox="0 0 25 24" fill="none" xmlns="http://www.w3.org/2000/svg">
<path d="M5.06995 7.94846V21.4555C5.07127 21.8133 5.21406 22.156 5.46716 22.4089C5.72027 22.6619 6.06314 22.8044 6.42095 22.8055H18.5769C18.9349 22.8044 19.2779 22.6617 19.5311 22.4086C19.7842 22.1555 19.9269 21.8124 19.9279 21.4545V7.94846H5.06995ZM9.12095 20.1045H7.77195V10.6495H9.12095V20.1045ZM11.8209 20.1045H10.4729V10.6495H11.8209V20.1045ZM14.5209 20.1045H13.1749V10.6495H14.5209V20.1045ZM17.2209 20.1045H15.8759V10.6495H17.2269L17.2209 20.1045ZM20.2659 3.89546H15.8759V2.20746C15.8752 1.93904 15.7682 1.68184 15.5784 1.49203C15.3886 1.30223 15.1314 1.19525 14.8629 1.19446H10.1359C9.86718 1.19472 9.60947 1.30147 9.41923 1.49133C9.229 1.68119 9.12174 1.93869 9.12095 2.20746V3.89546H4.73295C4.4647 3.89651 4.20775 4.00361 4.01817 4.19338C3.82858 4.38316 3.72174 4.64021 3.72095 4.90846V6.59746H21.2789V4.90846C21.2782 4.64004 21.1712 4.38284 20.9814 4.19303C20.7916 4.00323 20.5344 3.89625 20.2659 3.89546ZM14.5259 3.89546H10.4729V2.56646H14.5209V3.89546H14.5259Z" fill="#F29C46"/>
</svg>
