<svg width="24" height="23" viewBox="0 0 24 23" fill="none" xmlns="http://www.w3.org/2000/svg">
<path d="M14.3952 16.6905C14.2344 16.6918 14.0805 16.7584 13.9674 16.8757C13.8542 16.9931 13.7908 17.1516 13.7912 17.3167C13.7915 17.529 13.71 17.7329 13.5644 17.8837C13.4188 18.0346 13.2209 18.1202 13.014 18.1218H4.98527C4.77838 18.1202 4.58053 18.0346 4.43493 17.8837C4.28932 17.7329 4.20778 17.529 4.20811 17.3167V5.68319C4.20778 5.47086 4.28932 5.26702 4.43493 5.11617C4.58053 4.96532 4.77838 4.87972 4.98527 4.87806H13.014C13.2209 4.87972 13.4188 4.96532 13.5644 5.11617C13.71 5.26702 13.7915 5.47086 13.7912 5.68319C13.7912 5.84769 13.8549 6.00545 13.9682 6.12176C14.0815 6.23808 14.2352 6.30342 14.3955 6.30342C14.5558 6.30342 14.7095 6.23808 14.8229 6.12176C14.9362 6.00545 14.9999 5.84769 14.9999 5.68319C15.0025 5.14011 14.7948 4.61819 14.4225 4.23222C14.0502 3.84625 13.5438 3.62783 13.0146 3.625H4.98527C4.45609 3.62783 3.94967 3.84625 3.57738 4.23222C3.20509 4.61819 2.99741 5.14011 3.00002 5.68319V17.3167C2.99741 17.8598 3.20509 18.3817 3.57738 18.7677C3.94967 19.1536 4.45609 19.372 4.98527 19.3749H13.014C13.5432 19.372 14.0496 19.1536 14.4219 18.7677C14.7942 18.3817 15.0019 17.8598 14.9993 17.3167C14.9996 17.1516 14.9363 16.9931 14.8231 16.8757C14.7099 16.7584 14.5561 16.6918 14.3952 16.6905Z" fill="#262626"/>
<path d="M17.1122 6.82085C17.057 6.75845 16.9908 6.70895 16.9178 6.67531C16.8448 6.64167 16.7663 6.62458 16.6871 6.62505C16.6079 6.62391 16.5293 6.64071 16.4561 6.67439C16.383 6.70807 16.317 6.75792 16.2621 6.82085C16.1493 6.94708 16.0861 7.11698 16.0861 7.29397C16.0861 7.47096 16.1493 7.64087 16.2621 7.76709L19.0457 10.8364H8.10725C7.9462 10.8364 7.79174 10.9068 7.67786 11.0321C7.56398 11.1574 7.5 11.3274 7.5 11.5046C7.5 11.6818 7.56398 11.8518 7.67786 11.9771C7.79174 12.1025 7.9462 12.1729 8.10725 12.1729H19.0633L16.3477 15.2375C16.2368 15.3647 16.1749 15.5342 16.1749 15.7106C16.1749 15.8869 16.2368 16.0564 16.3477 16.1837L16.3519 16.1884C16.4647 16.307 16.6144 16.3737 16.7703 16.3748C16.8497 16.3764 16.9284 16.3598 17.0016 16.3261C17.0748 16.2924 17.1408 16.2423 17.1954 16.179L20.7223 12.2397C20.8099 12.1507 20.8797 12.0428 20.9275 11.9226C20.9752 11.8025 20.9999 11.6728 20.9999 11.5417C20.9999 11.4106 20.9752 11.2809 20.9275 11.1608C20.8797 11.0406 20.8099 10.9327 20.7223 10.8437L17.1122 6.82085Z" fill="#262626"/>
</svg>
