<svg width="24" height="24" viewBox="0 0 24 24" fill="none" xmlns="http://www.w3.org/2000/svg">
<rect width="24" height="24" rx="4" fill="#ADB3BC"/>
<path d="M7.35757 6.4963C7.01068 6.17415 6.45197 6.16674 6.11207 6.53274C5.77217 6.89873 5.82081 7.45538 6.1677 7.77753L10.7208 12.0059L6.17904 16.225C5.83016 16.5491 5.78993 17.1046 6.12656 17.467C6.46319 17.8294 7.02021 17.8301 7.36909 17.506L12.0055 13.199L16.6403 17.5034C16.9872 17.8255 17.5459 17.8329 17.8858 17.4669C18.2257 17.1009 18.177 16.5443 17.8302 16.2221L13.29 12.0058L17.8364 7.78244C18.1852 7.45835 18.2255 6.90278 17.8888 6.54041C17.5522 6.17803 16.9952 6.17729 16.6463 6.50138L12.0053 10.8126L7.35757 6.4963Z" fill="black"/>
</svg>
