<svg width="24" height="24" viewBox="0 0 24 24" fill="none" xmlns="http://www.w3.org/2000/svg">
<path fill-rule="evenodd" clip-rule="evenodd" d="M5.90204 2.28148C6.04079 2.10428 6.25855 2 6.4898 2H17.5102C17.7415 2 17.9592 2.10428 18.098 2.28148L20.8531 5.8C20.9484 5.92181 21 6.06996 21 6.22222V18.537C21 19.1903 20.7291 19.8167 20.2468 20.2786C19.7646 20.7405 19.1106 21 18.4286 21H5.57143C4.88944 21 4.23539 20.7405 3.75315 20.2786C3.27092 19.8167 3 19.1903 3 18.537V6.22222C3 6.06996 3.05156 5.92181 3.14694 5.8L5.90204 2.28148ZM6.85714 3.40741L4.46939 6.45679V18.537C4.46939 18.817 4.5855 19.0855 4.79217 19.2834C4.99884 19.4814 5.27915 19.5926 5.57143 19.5926H18.4286C18.7209 19.5926 19.0012 19.4814 19.2078 19.2834C19.4145 19.0855 19.5306 18.817 19.5306 18.537V6.45679L17.1429 3.40741H6.85714Z" fill="#262626"/>
<path fill-rule="evenodd" clip-rule="evenodd" d="M3 6.92587C3 6.53723 3.32893 6.22217 3.73469 6.22217H20.2653C20.6711 6.22217 21 6.53723 21 6.92587C21 7.31452 20.6711 7.62958 20.2653 7.62958H3.73469C3.32893 7.62958 3 7.31452 3 6.92587Z" fill="#262626"/>
<path fill-rule="evenodd" clip-rule="evenodd" d="M7.59163 8.6853C7.99739 8.6853 8.32632 9.00036 8.32632 9.38901C8.32632 10.3222 8.71335 11.2171 9.40226 11.877C10.0912 12.5368 11.0255 12.9075 11.9998 12.9075C12.9741 12.9075 13.9084 12.5368 14.5973 11.877C15.2862 11.2171 15.6733 10.3222 15.6733 9.38901C15.6733 9.00036 16.0022 8.6853 16.408 8.6853C16.8137 8.6853 17.1426 9.00036 17.1426 9.38901C17.1426 10.6954 16.6008 11.9484 15.6363 12.8722C14.6719 13.796 13.3638 14.3149 11.9998 14.3149C10.6358 14.3149 9.32771 13.796 8.36324 12.8722C7.39877 11.9484 6.85693 10.6954 6.85693 9.38901C6.85693 9.00036 7.18587 8.6853 7.59163 8.6853Z" fill="#262626"/>
</svg>
